<svg width="16" height="14" viewBox="0 0 16 14" fill="none" xmlns="http://www.w3.org/2000/svg">
<path fill-rule="evenodd" clip-rule="evenodd" d="M1.45455 0H14.5455C15.3455 0 16 0.7 16 1.55556V10.8889C16 11.7444 15.3455 12.4444 14.5455 12.4444H10.9091V14H5.09091V12.4444H1.45455C0.654545 12.4444 0 11.7444 0 10.8889V1.55556C0 0.7 0.654545 0 1.45455 0ZM1.45455 10.8889H14.5455V1.55556H1.45455V10.8889ZM13.0909 3.88889H5.09091V5.44444H13.0909V3.88889ZM5.09091 7H13.0909V8.55556H5.09091V7ZM4.36364 3.88889H2.90909V5.44444H4.36364V3.88889ZM2.90909 7H4.36364V8.55556H2.90909V7Z" fill="#414250"/>
</svg>
