<svg width="54" height="54" viewBox="0 0 54 54" fill="none" xmlns="http://www.w3.org/2000/svg">
<path d="M27 12.6562C29.617 12.6562 31.7461 10.5272 31.7461 7.91016V4.74609C31.7461 2.1291 29.617 0 27 0C24.383 0 22.2539 2.1291 22.2539 4.74609V7.91016C22.2539 10.5272 24.383 12.6562 27 12.6562Z" fill="white"/>
<path d="M27 12.6562C29.617 12.6562 31.7461 10.5272 31.7461 7.91016V4.74609C31.7461 2.1291 29.617 0 27 0C24.383 0 22.2539 2.1291 22.2539 4.74609V7.91016C22.2539 10.5272 24.383 12.6562 27 12.6562Z" fill="#017EFF"/>
<path d="M43.9805 41.3438C46.5975 41.3438 48.7266 39.2147 48.7266 36.5977V33.4336C48.7266 30.8166 46.5975 28.6875 43.9805 28.6875C41.3635 28.6875 39.2344 30.8166 39.2344 33.4336V36.5977C39.2344 39.2147 41.3635 41.3438 43.9805 41.3438Z" fill="white"/>
<path d="M43.9805 41.3438C46.5975 41.3438 48.7266 39.2147 48.7266 36.5977V33.4336C48.7266 30.8166 46.5975 28.6875 43.9805 28.6875C41.3635 28.6875 39.2344 30.8166 39.2344 33.4336V36.5977C39.2344 39.2147 41.3635 41.3438 43.9805 41.3438Z" fill="#017EFF"/>
<path d="M18.5625 25.3125H35.4375C36.3112 25.3125 37.0195 24.6042 37.0195 23.7305V20.5664C37.0195 17.4409 35.4108 14.6855 32.9789 13.0804C31.5275 14.7567 29.3862 15.8203 27 15.8203C24.6138 15.8203 22.4725 14.7567 21.0211 13.0804C18.5892 14.6855 16.9805 17.4409 16.9805 20.5664V23.7305C16.9805 24.6042 17.6888 25.3125 18.5625 25.3125Z" fill="white"/>
<path d="M18.5625 25.3125H35.4375C36.3112 25.3125 37.0195 24.6042 37.0195 23.7305V20.5664C37.0195 17.4409 35.4108 14.6855 32.9789 13.0804C31.5275 14.7567 29.3862 15.8203 27 15.8203C24.6138 15.8203 22.4725 14.7567 21.0211 13.0804C18.5892 14.6855 16.9805 17.4409 16.9805 20.5664V23.7305C16.9805 24.6042 17.6888 25.3125 18.5625 25.3125Z" fill="#017EFF"/>
<path d="M35.3925 39.7556L31.6195 36.6279C31.7014 36.2791 31.7461 35.9163 31.7461 35.543C31.7461 33.4805 30.4234 31.722 28.582 31.069V28.4766H25.418V31.069C23.5766 31.722 22.2539 33.4805 22.2539 35.543C22.2539 35.9163 22.2986 36.2792 22.3805 36.628L18.6077 39.7556C19.4493 40.4228 20.1896 41.19 20.8168 42.0341L24.1102 39.304C24.9111 39.921 25.9132 40.2891 27 40.2891C28.0869 40.2891 29.0888 39.921 29.8899 39.3041L33.1832 42.0341C33.8104 41.19 34.5507 40.4228 35.3925 39.7556Z" fill="white"/>
<path d="M35.3925 39.7556L31.6195 36.6279C31.7014 36.2791 31.7461 35.9163 31.7461 35.543C31.7461 33.4805 30.4234 31.722 28.582 31.069V28.4766H25.418V31.069C23.5766 31.722 22.2539 33.4805 22.2539 35.543C22.2539 35.9163 22.2986 36.2792 22.3805 36.628L18.6077 39.7556C19.4493 40.4228 20.1896 41.19 20.8168 42.0341L24.1102 39.304C24.9111 39.921 25.9132 40.2891 27 40.2891C28.0869 40.2891 29.0888 39.921 29.8899 39.3041L33.1832 42.0341C33.8104 41.19 34.5507 40.4228 35.3925 39.7556Z" fill="#017EFF"/>
<path d="M49.9594 41.768C48.5079 43.4442 46.3667 44.5078 43.9805 44.5078C41.5942 44.5078 39.453 43.4442 38.0016 41.768C35.5697 43.373 33.9609 46.1285 33.9609 49.2539V52.418C33.9609 53.2917 34.6693 54 35.543 54H52.418C53.2917 54 54 53.2917 54 52.418V49.2539C54 46.1285 52.3913 43.373 49.9594 41.768Z" fill="white"/>
<path d="M49.9594 41.768C48.5079 43.4442 46.3667 44.5078 43.9805 44.5078C41.5942 44.5078 39.453 43.4442 38.0016 41.768C35.5697 43.373 33.9609 46.1285 33.9609 49.2539V52.418C33.9609 53.2917 34.6693 54 35.543 54H52.418C53.2917 54 54 53.2917 54 52.418V49.2539C54 46.1285 52.3913 43.373 49.9594 41.768Z" fill="#017EFF"/>
<path d="M15.9984 41.768C14.547 43.4442 12.4058 44.5078 10.0195 44.5078C7.6333 44.5078 5.49207 43.4442 4.04061 41.768C1.60871 43.373 0 46.1285 0 49.2539V52.418C0 53.2917 0.708328 54 1.58203 54H18.457C19.3307 54 20.0391 53.2917 20.0391 52.418V49.2539C20.0391 46.1285 18.4303 43.373 15.9984 41.768Z" fill="white"/>
<path d="M15.9984 41.768C14.547 43.4442 12.4058 44.5078 10.0195 44.5078C7.6333 44.5078 5.49207 43.4442 4.04061 41.768C1.60871 43.373 0 46.1285 0 49.2539V52.418C0 53.2917 0.708328 54 1.58203 54H18.457C19.3307 54 20.0391 53.2917 20.0391 52.418V49.2539C20.0391 46.1285 18.4303 43.373 15.9984 41.768Z" fill="#017EFF"/>
<path d="M10.0195 41.3438C12.6365 41.3438 14.7656 39.2147 14.7656 36.5977V33.4336C14.7656 30.8166 12.6365 28.6875 10.0195 28.6875C7.40254 28.6875 5.27344 30.8166 5.27344 33.4336V36.5977C5.27344 39.2147 7.40254 41.3438 10.0195 41.3438Z" fill="white"/>
<path d="M10.0195 41.3438C12.6365 41.3438 14.7656 39.2147 14.7656 36.5977V33.4336C14.7656 30.8166 12.6365 28.6875 10.0195 28.6875C7.40254 28.6875 5.27344 30.8166 5.27344 33.4336V36.5977C5.27344 39.2147 7.40254 41.3438 10.0195 41.3438Z" fill="#017EFF"/>
</svg>
