<svg width="54" height="54" viewBox="0 0 54 54" fill="none" xmlns="http://www.w3.org/2000/svg">
<path d="M14.2324 12.7738C14.2324 9.37931 17.07 6.61768 20.5579 6.61768C24.0457 6.61768 26.8834 9.37931 26.8834 12.7738C26.8834 16.1683 24.0457 18.9299 20.5579 18.9299C17.07 18.9299 14.2324 16.1683 14.2324 12.7738ZM20.5579 15.8519C22.3018 15.8519 23.7206 14.471 23.7206 12.7738C23.7206 11.0766 22.3018 9.69574 20.5579 9.69574C18.8139 9.69574 17.3951 11.0766 17.3951 12.7738C17.3951 14.471 18.8139 15.8519 20.5579 15.8519Z" fill="white"/>
<path d="M12.651 26.6251C12.651 22.382 16.198 18.9299 20.5579 18.9299C24.9177 18.9299 28.4647 22.382 28.4647 26.6251V31.2422H12.651V26.6251ZM15.8137 28.1641H25.302V26.6251C25.302 24.0792 23.1738 22.008 20.5579 22.008C17.9419 22.008 15.8137 24.0792 15.8137 26.6251V28.1641Z" fill="white"/>
<path d="M31.3428 37.4948C28.2055 39.3841 24.5105 40.4764 20.5579 40.4764C9.22225 40.4764 0 31.5011 0 20.469C0 9.43684 9.22225 0.461487 20.5579 0.461487C31.8935 0.461487 41.1157 9.43684 41.1157 20.469C41.1157 24.3158 39.9934 27.9119 38.0521 30.9653L54 46.4863L47.2908 53.0159L31.3428 37.4948ZM20.5579 3.53956C10.9662 3.53956 3.16275 11.1341 3.16275 20.469C3.16275 29.8038 10.9662 37.3983 20.5579 37.3983C30.1495 37.3983 37.953 29.8038 37.953 20.469C37.953 11.1341 30.1495 3.53956 20.5579 3.53956ZM33.926 35.6559L42.2529 43.7597L44.4893 41.5832L36.1625 33.4792C35.4751 34.259 34.7273 34.9869 33.926 35.6559ZM46.7257 43.7597L44.4893 45.9362L47.2908 48.6628L49.5271 46.4863L46.7257 43.7597Z" fill="white"/>
</svg>
