<svg width="54" height="54" viewBox="0 0 54 54" fill="none" xmlns="http://www.w3.org/2000/svg">
<path d="M16.4535 14.9222C20.5243 14.9222 23.8363 11.699 23.8363 7.73712C23.8363 3.77528 20.5243 0.552002 16.4535 0.552002C12.3822 0.552002 9.07068 3.77528 9.07068 7.73712C9.07068 11.699 12.3822 14.9222 16.4535 14.9222ZM16.4535 4.65778C18.1978 4.65778 19.6176 6.03948 19.6176 7.73712C19.6176 9.43517 18.1978 10.8165 16.4535 10.8165C14.7087 10.8165 13.2894 9.43517 13.2894 7.73712C13.2894 6.03948 14.7087 4.65778 16.4535 4.65778Z" fill="white"/>
<path d="M16.4535 14.9222C20.5243 14.9222 23.8363 11.699 23.8363 7.73712C23.8363 3.77528 20.5243 0.552002 16.4535 0.552002C12.3822 0.552002 9.07068 3.77528 9.07068 7.73712C9.07068 11.699 12.3822 14.9222 16.4535 14.9222ZM16.4535 4.65778C18.1978 4.65778 19.6176 6.03948 19.6176 7.73712C19.6176 9.43517 18.1978 10.8165 16.4535 10.8165C14.7087 10.8165 13.2894 9.43517 13.2894 7.73712C13.2894 6.03948 14.7087 4.65778 16.4535 4.65778Z" fill="#017EFF"/>
<path d="M44.6548 22.9969C48.7256 22.9969 52.0376 19.7737 52.0376 15.8118C52.0376 11.85 48.7256 8.62671 44.6548 8.62671C40.5839 8.62671 37.272 11.85 37.272 15.8118C37.272 19.7737 40.5839 22.9969 44.6548 22.9969ZM44.6548 12.7325C46.3991 12.7325 47.8188 14.1138 47.8188 15.8118C47.8188 17.5099 46.3991 18.8912 44.6548 18.8912C42.91 18.8912 41.4907 17.5099 41.4907 15.8118C41.4907 14.1138 42.91 12.7325 44.6548 12.7325Z" fill="white"/>
<path d="M44.6548 22.9969C48.7256 22.9969 52.0376 19.7737 52.0376 15.8118C52.0376 11.85 48.7256 8.62671 44.6548 8.62671C40.5839 8.62671 37.272 11.85 37.272 15.8118C37.272 19.7737 40.5839 22.9969 44.6548 22.9969ZM44.6548 12.7325C46.3991 12.7325 47.8188 14.1138 47.8188 15.8118C47.8188 17.5099 46.3991 18.8912 44.6548 18.8912C42.91 18.8912 41.4907 17.5099 41.4907 15.8118C41.4907 14.1138 42.91 12.7325 44.6548 12.7325Z" fill="#017EFF"/>
<path d="M44.6547 24.0234C41.3329 24.0234 38.4106 25.719 36.7528 28.2675H36.7516C34.6311 28.2675 32.9061 26.5887 32.9061 24.525C32.9061 20.1979 29.2889 16.6771 24.8423 16.6771C22.2789 16.6771 10.1896 16.6771 8.06421 16.6771C3.61765 16.6771 0 20.1979 0 24.5254C0.000411986 25.529 0.000411986 49.6974 0.000411986 51.053C0.000411986 52.1869 0.944683 53.1059 2.10978 53.1059H51.8908C53.0555 53.1059 54.0002 52.1869 54.0002 51.053C54.0002 44.8418 54.0002 36.6294 54.0002 33.1187C54.0002 28.1035 49.8078 24.0234 44.6547 24.0234ZM44.6547 28.1292C47.4813 28.1292 49.7815 30.3673 49.7815 33.1187V34.1447H39.528V33.1187C39.528 30.3673 41.8277 28.1292 44.6547 28.1292ZM28.6878 24.525C28.6878 28.3878 31.5705 31.605 35.3517 32.2522C35.2866 32.921 35.3171 33.2939 35.3092 34.1447H24.446V20.7828H24.8427C26.9628 20.7828 28.6878 22.4617 28.6878 24.525ZM20.2273 20.7828V34.1451H12.6797V20.7828H20.2273ZM8.06421 20.7828H8.46054V34.1451H4.21914V24.5254C4.21914 22.4617 5.94413 20.7828 8.06421 20.7828ZM49.7815 49.0001H4.21914V38.2505H49.7815V49.0001Z" fill="white"/>
<path d="M44.6547 24.0234C41.3329 24.0234 38.4106 25.719 36.7528 28.2675H36.7516C34.6311 28.2675 32.9061 26.5887 32.9061 24.525C32.9061 20.1979 29.2889 16.6771 24.8423 16.6771C22.2789 16.6771 10.1896 16.6771 8.06421 16.6771C3.61765 16.6771 0 20.1979 0 24.5254C0.000411986 25.529 0.000411986 49.6974 0.000411986 51.053C0.000411986 52.1869 0.944683 53.1059 2.10978 53.1059H51.8908C53.0555 53.1059 54.0002 52.1869 54.0002 51.053C54.0002 44.8418 54.0002 36.6294 54.0002 33.1187C54.0002 28.1035 49.8078 24.0234 44.6547 24.0234ZM44.6547 28.1292C47.4813 28.1292 49.7815 30.3673 49.7815 33.1187V34.1447H39.528V33.1187C39.528 30.3673 41.8277 28.1292 44.6547 28.1292ZM28.6878 24.525C28.6878 28.3878 31.5705 31.605 35.3517 32.2522C35.2866 32.921 35.3171 33.2939 35.3092 34.1447H24.446V20.7828H24.8427C26.9628 20.7828 28.6878 22.4617 28.6878 24.525ZM20.2273 20.7828V34.1451H12.6797V20.7828H20.2273ZM8.06421 20.7828H8.46054V34.1451H4.21914V24.5254C4.21914 22.4617 5.94413 20.7828 8.06421 20.7828ZM49.7815 49.0001H4.21914V38.2505H49.7815V49.0001Z" fill="#017EFF"/>
</svg>
