<svg width="14" height="13" viewBox="0 0 14 13" fill="none" xmlns="http://www.w3.org/2000/svg">
<path fill-rule="evenodd" clip-rule="evenodd" d="M8.71182 4.45455H12.7273C13.4273 4.45455 14 5.02727 14 5.72727V7C14 7.16545 13.9682 7.31818 13.9109 7.46455L11.9891 11.9509C11.7982 12.4091 11.3464 12.7273 10.8182 12.7273H5.09091C4.39091 12.7273 3.81818 12.1545 3.81818 11.4545V5.09091C3.81818 4.74091 3.95818 4.42273 4.19364 4.19364L8.38091 0L9.05545 0.668182C9.22727 0.84 9.33545 1.08182 9.33545 1.34273L9.31636 1.54636L8.71182 4.45455ZM2.54545 5.09091H0V12.7273H2.54545V5.09091Z" fill="#8F9DA9"/>
</svg>
