<svg width="10" height="11" viewBox="0 0 10 11" fill="none" xmlns="http://www.w3.org/2000/svg">
<path d="M5 0C2.23929 0 0 1.56979 0 3.50511C0 6.13393 5 10.0146 5 10.0146C5 10.0146 10 6.13393 10 3.50511C10 1.56979 7.76071 0 5 0ZM5 4.75693C4.01429 4.75693 3.21429 4.19611 3.21429 3.50511C3.21429 2.8141 4.01429 2.25328 5 2.25328C5.98571 2.25328 6.78571 2.8141 6.78571 3.50511C6.78571 4.19611 5.98571 4.75693 5 4.75693Z" fill="white"/>
<path d="M5 0C2.23929 0 0 1.56979 0 3.50511C0 6.13393 5 10.0146 5 10.0146C5 10.0146 10 6.13393 10 3.50511C10 1.56979 7.76071 0 5 0ZM5 4.75693C4.01429 4.75693 3.21429 4.19611 3.21429 3.50511C3.21429 2.8141 4.01429 2.25328 5 2.25328C5.98571 2.25328 6.78571 2.8141 6.78571 3.50511C6.78571 4.19611 5.98571 4.75693 5 4.75693Z" fill="#017EFF"/>
</svg>
