<svg width="23" height="17" viewBox="0 0 23 17" fill="none" xmlns="http://www.w3.org/2000/svg">
<path d="M20.9091 0H2.09091C0.940909 0 0 0.85 0 1.88889V4.72222H2.09091V1.88889H20.9091V15.1111H13.5909V17H20.9091C22.0591 17 23 16.15 23 15.1111V1.88889C23 0.85 22.0591 0 20.9091 0ZM0 14.1667V17H3.13636C3.13636 15.4322 1.73545 14.1667 0 14.1667ZM0 10.3889V12.2778C2.88545 12.2778 5.22727 14.3933 5.22727 17H7.31818C7.31818 13.345 4.04591 10.3889 0 10.3889ZM0 6.61111V8.5C5.19591 8.5 9.40909 12.3061 9.40909 17H11.5C11.5 11.2578 6.34591 6.61111 0 6.61111ZM10.4545 7.64056V9.52944L14.1136 11.3333L17.7727 9.52944V7.64056L14.1136 9.44444L10.4545 7.64056ZM14.1136 2.83333L8.36364 5.66667L14.1136 8.5L19.8636 5.66667L14.1136 2.83333Z" fill="#8F9DA9"/>
</svg>
