<svg width="16" height="16" viewBox="0 0 16 16" fill="none" xmlns="http://www.w3.org/2000/svg">
<path fill-rule="evenodd" clip-rule="evenodd" d="M16 3.08911L12.32 0L11.28 1.18812L14.96 4.27723L16 3.08911ZM4.72001 1.26733L3.68001 0.079208L0 3.08911L1.04 4.27723L4.72001 1.26733ZM7.20002 4.91089H8.40002V9.10891L11.6 11.0099L10.96 11.9604L7.20002 9.66337V4.91089ZM8.00002 1.74257C4.00001 1.74257 0.800002 4.91089 0.800002 8.87129C0.800002 12.8317 4.00001 16 8.00002 16C12 16 15.2 12.8317 15.2 8.87129C15.2 4.91089 12 1.74257 8.00002 1.74257ZM2.40001 8.87129C2.40001 11.9604 4.88001 14.4158 8.00002 14.4158C11.12 14.4158 13.6 11.9604 13.6 8.87129C13.6 5.78218 11.12 3.32673 8.00002 3.32673C4.88001 3.32673 2.40001 5.78218 2.40001 8.87129Z" fill="#828282"/>
</svg>
