<svg width="14" height="16" viewBox="0 0 14 16" fill="none" xmlns="http://www.w3.org/2000/svg">
<path d="M11.6667 10.9511C11.0756 10.9511 10.5467 11.1844 10.1422 11.55L4.59667 8.32222C4.63556 8.14333 4.66667 7.96444 4.66667 7.77778C4.66667 7.59111 4.63556 7.41222 4.59667 7.23333L10.08 4.03667C10.5 4.42556 11.0522 4.66667 11.6667 4.66667C12.9578 4.66667 14 3.62444 14 2.33333C14 1.04222 12.9578 0 11.6667 0C10.3756 0 9.33333 1.04222 9.33333 2.33333C9.33333 2.52 9.36444 2.69889 9.40333 2.87778L3.92 6.07444C3.5 5.68556 2.94778 5.44444 2.33333 5.44444C1.04222 5.44444 0 6.48667 0 7.77778C0 9.06889 1.04222 10.1111 2.33333 10.1111C2.94778 10.1111 3.5 9.87 3.92 9.48111L9.45778 12.7167C9.41889 12.88 9.39556 13.0511 9.39556 13.2222C9.39556 14.4744 10.4144 15.4933 11.6667 15.4933C12.9189 15.4933 13.9378 14.4744 13.9378 13.2222C13.9378 11.97 12.9189 10.9511 11.6667 10.9511Z" fill="#8F9DA9"/>
</svg>
