<svg width="16" height="13" viewBox="0 0 16 13" fill="none" xmlns="http://www.w3.org/2000/svg">
<path d="M5.0518 12.9463C11.0497 12.9463 14.3297 7.98628 14.3297 3.68514C14.3297 3.54426 14.3268 3.40401 14.3205 3.2644C14.9572 2.80496 15.5105 2.2316 15.947 1.57891C15.3628 1.83815 14.734 2.01266 14.0744 2.09135C14.7477 1.68838 15.2645 1.05093 15.5084 0.291025C14.8783 0.663851 14.1806 0.934823 13.4377 1.08112C12.8427 0.448448 11.9956 0.0527344 11.0575 0.0527344C9.25678 0.0527344 7.79651 1.51042 7.79651 3.30723C7.79651 3.56266 7.82512 3.8111 7.88107 4.04941C5.17093 3.91329 2.76779 2.61808 1.15947 0.648618C0.879427 1.12964 0.717949 1.6884 0.717949 2.2846C0.717949 3.41387 1.29363 4.41079 2.16904 4.994C1.63406 4.9775 1.1315 4.83091 0.692243 4.58691C0.691763 4.60056 0.691761 4.61388 0.691761 4.62847C0.691761 6.20483 1.81576 7.52096 3.30782 7.81919C3.03381 7.89376 2.74552 7.93374 2.44798 7.93374C2.23818 7.93374 2.03379 7.91313 1.83512 7.87504C2.25026 9.16833 3.45405 10.1095 4.88125 10.1358C3.7652 11.009 2.35928 11.529 0.831283 11.529C0.568403 11.529 0.308704 11.5141 0.0534668 11.484C1.49661 12.4073 3.21022 12.9461 5.05198 12.9461" fill="#5F6178"/>
</svg>
