<svg width="16" height="20" viewBox="0 0 16 20" fill="none" xmlns="http://www.w3.org/2000/svg">
<path fill-rule="evenodd" clip-rule="evenodd" d="M8 18C11.31 18 14 15.31 14 12H16C16 16.42 12.42 20 8 20C3.58 20 0 16.42 0 12C0 7.58 3.58 4 8 4V0L13 5L8 10V6C4.69 6 2 8.69 2 12C2 15.31 4.69 18 8 18ZM6.34 14.34C6.42 14.31 6.48 14.27 6.54 14.22C6.55393 14.2033 6.56787 14.1881 6.58137 14.1734C6.61631 14.1354 6.64836 14.1005 6.67 14.05C6.7 13.98 6.71 13.9 6.71 13.81C6.71 13.7 6.69 13.6 6.66 13.52C6.63 13.44 6.58 13.37 6.52 13.32C6.46 13.27 6.39 13.24 6.3 13.21C6.21 13.18 6.12 13.17 6.01 13.17H5.56V12.51H5.99C6.21 12.51 6.36 12.46 6.47 12.35C6.58 12.24 6.63 12.1 6.63 11.92C6.63 11.84 6.62 11.76 6.59 11.7C6.56 11.64 6.53 11.58 6.48 11.53C6.43 11.48 6.37 11.45 6.3 11.42C6.23 11.39 6.15 11.38 6.05 11.38C5.97 11.38 5.9 11.38 5.83 11.41C5.76 11.44 5.7 11.47 5.65 11.51C5.6 11.55 5.56 11.6 5.53 11.66C5.5 11.72 5.48 11.79 5.48 11.86H4.63C4.63 11.68 4.67 11.53 4.74 11.38C4.81 11.23 4.92 11.11 5.04 11.01C5.16 10.91 5.32 10.83 5.48 10.78C5.64 10.73 5.83 10.7 6.02 10.7C6.24 10.7 6.43 10.73 6.61 10.78C6.79 10.83 6.94 10.91 7.07 11.01C7.2 11.11 7.3 11.23 7.37 11.39C7.44 11.55 7.48 11.72 7.48 11.92C7.48 12.01 7.47 12.1 7.44 12.19C7.41 12.28 7.36 12.36 7.31 12.44C7.26 12.52 7.19 12.59 7.11 12.66C7.03 12.73 6.93 12.78 6.83 12.83C7.07 12.92 7.25 13.05 7.37 13.22C7.49 13.39 7.55 13.6 7.55 13.83C7.55 14.03 7.51 14.21 7.43 14.36C7.35 14.51 7.25 14.65 7.11 14.75C6.97 14.85 6.82 14.94 6.63 14.99C6.44 15.04 6.24 15.07 6.03 15.07C5.85 15.07 5.67 15.05 5.5 15C5.33 14.95 5.18 14.87 5.04 14.77C4.9 14.67 4.79 14.55 4.71 14.39C4.63 14.23 4.59 14.05 4.59 13.84H5.44C5.44 13.92 5.46 13.99 5.49 14.06C5.52 14.13 5.56 14.18 5.62 14.23C5.68 14.28 5.74 14.31 5.82 14.34C5.9 14.37 5.98 14.38 6.07 14.38C6.17 14.38 6.26 14.37 6.34 14.34ZM10.44 10.78C10.26 10.71 10.07 10.68 9.85 10.68C9.63 10.68 9.44 10.71 9.26 10.78C9.08 10.85 8.93 10.96 8.81 11.11C8.69 11.26 8.58 11.45 8.52 11.68C8.46 11.91 8.42 12.18 8.42 12.5V13.24C8.42 13.56 8.46 13.84 8.53 14.06C8.6 14.28 8.7 14.48 8.83 14.63C8.96 14.78 9.11 14.89 9.29 14.96C9.47 15.03 9.66 15.06 9.88 15.06C10.1 15.06 10.29 15.03 10.47 14.96C10.65 14.89 10.8 14.78 10.92 14.63C11.04 14.48 11.14 14.29 11.21 14.06C11.28 13.83 11.31 13.56 11.31 13.24V12.5C11.31 12.18 11.27 11.9 11.2 11.68C11.13 11.46 11.03 11.26 10.9 11.11C10.77 10.96 10.62 10.85 10.44 10.78ZM10.41 13.83C10.44 13.7 10.45 13.54 10.45 13.35H10.46V12.38C10.46 12.19 10.45 12.03 10.42 11.9C10.39 11.77 10.35 11.67 10.3 11.59C10.25 11.51 10.18 11.45 10.11 11.42C10.04 11.39 9.95 11.37 9.86 11.37C9.77 11.37 9.69 11.39 9.61 11.42C9.53 11.45 9.48 11.51 9.42 11.59C9.36 11.67 9.33 11.77 9.3 11.9C9.27 12.03 9.26 12.19 9.26 12.38V13.35C9.26 13.54 9.27 13.7 9.3 13.83C9.33 13.96 9.37 14.07 9.42 14.15C9.47 14.23 9.54 14.29 9.61 14.32C9.68 14.35 9.77 14.37 9.86 14.37C9.95 14.37 10.03 14.35 10.11 14.32C10.19 14.29 10.25 14.23 10.3 14.15C10.35 14.07 10.38 13.96 10.41 13.83Z" fill="#828282"/>
</svg>
