<svg width="30" height="34" viewBox="0 0 30 34" fill="none" xmlns="http://www.w3.org/2000/svg">
<path d="M8.68549 9.48173C8.92769 9.9474 9.18797 10.3553 9.28919 10.8414C9.57116 12.1908 10.2182 13.4043 11.1871 14.407C11.8016 15.0426 11.7655 15.6953 11.5558 16.3513C11.375 16.9189 11.4293 17.3336 11.8305 17.7687C12.3656 18.3533 12.9006 18.9346 13.6417 19.3051C14.4984 19.7368 15.6986 19.662 16.6674 18.9516C17.4591 18.3703 18.052 17.6259 18.6014 16.8441C18.699 16.7082 18.6593 16.5892 18.6304 16.46C18.5942 16.3003 18.5617 16.1405 18.5255 15.9842C18.3773 15.3417 18.5797 14.8319 19.0461 14.3288C19.9788 13.3193 20.6005 12.1432 20.8897 10.8278C20.9946 10.3519 21.2621 9.9576 21.5441 9.53611C21.5368 9.69927 21.5441 9.86582 21.5187 10.029C21.2512 11.7081 21.4537 13.3669 21.7718 15.012C21.9056 15.6885 22.1405 16.3547 22.4297 16.9971C22.5996 17.371 23.0045 17.3642 23.3154 17.4832C24.4397 17.9047 25.5314 18.3805 26.5653 18.9788C27.5016 19.5192 27.9751 20.3418 28.3077 21.2697C28.8283 22.7178 29.2838 24.1828 29.5947 25.6886C29.9345 27.3405 30.0682 28.9993 29.967 30.6784C29.92 31.4126 29.4284 31.8511 28.7741 32.0822C27.2232 32.6295 25.6254 33.0544 23.9986 33.3671C23.0407 33.5506 22.0791 33.69 21.1247 33.8633C20.4017 33.9959 19.6932 33.9789 18.9738 33.9823C17.0795 33.9959 15.1816 33.9585 13.2874 33.9959C11.4654 34.0299 9.676 33.8498 7.88295 33.5336C6.03569 33.2107 4.21373 32.8232 2.43515 32.2692C1.93266 32.1128 1.43741 31.9361 0.94938 31.7423C0.193845 31.4432 0.0745496 30.8042 0.0203245 30.1651C-0.0628205 29.1692 0.128775 28.1835 0.24084 27.2011C0.39267 25.8789 0.634875 24.5669 0.981915 23.2752C1.30727 22.0617 1.7013 20.8653 2.40984 19.8013C2.9774 18.9482 3.89561 18.4791 4.8825 18.1392C5.70311 17.8605 6.52733 17.5919 7.34793 17.3098C7.53591 17.2452 7.66967 17.1331 7.75643 16.9291C8.24807 15.7428 8.53004 14.5226 8.65295 13.2513C8.7614 12.15 8.81201 11.0589 8.63849 9.961C8.62041 9.82164 8.58788 9.67208 8.68549 9.48173ZM13.9959 29.1352C13.9959 29.4479 14.0104 29.7063 13.9923 29.9646C13.9742 30.2229 14.061 30.3351 14.3538 30.3215C14.7876 30.3045 15.2214 30.3045 15.6552 30.3215C15.9516 30.3351 16.0276 30.2127 16.0203 29.9612C16.0059 29.4717 16.0312 28.9823 16.0095 28.4928C15.9986 28.2005 16.089 28.0747 16.4252 28.0883C16.9458 28.1087 17.4663 28.0815 17.9869 28.0985C18.2725 28.1087 18.3773 27.9999 18.3737 27.7416C18.3665 27.3337 18.3556 26.9258 18.3773 26.5213C18.3954 26.2324 18.2472 26.178 17.9869 26.1814C17.4952 26.1916 17.0036 26.1848 16.512 26.1916C16.1541 26.1984 15.9842 26.0693 16.0059 25.7055C16.0348 25.2331 16.0095 24.7538 16.0203 24.2779C16.0239 24.0536 15.9444 23.9618 15.6914 23.9686C15.2431 23.9822 14.7948 23.9788 14.3466 23.9686C14.0935 23.9652 13.9815 24.0434 13.9887 24.2983C14.0032 24.7878 13.9742 25.2773 13.9995 25.7667C14.014 26.0794 13.8622 26.178 13.5657 26.178C13.1898 26.178 12.8138 26.1814 12.4379 26.1848C11.6317 26.195 11.6317 26.1984 11.6353 26.97C11.6389 28.0951 11.6389 28.0883 12.8283 28.0985C13.2006 28.1019 13.6742 27.9455 13.9128 28.1733C14.1586 28.3942 13.9562 28.8429 13.9959 29.1352ZM10.2074 7.93854C9.71576 7.93854 9.22412 7.92835 8.73248 7.94194C8.40351 7.95214 8.26976 7.83657 8.25891 7.51706C8.22999 6.72847 8.17216 5.93309 8.28784 5.1547C8.56619 3.3022 9.60731 1.22876 12.2029 0.484356C13.3705 0.147847 14.5454 -0.103685 15.7492 0.0424753C18.0122 0.314402 20.0041 1.10639 21.1103 3.13564C21.8224 4.43749 21.8188 5.8821 21.7573 7.31311C21.7537 7.44228 21.7754 7.57484 21.5151 7.52726C21.3127 7.48986 21.2802 7.738 21.2476 7.88076C21.197 8.1051 21.1283 8.13909 20.9006 8.02692C19.9137 7.54085 19.2666 6.78286 18.8689 5.82771C18.7605 5.56598 18.7135 5.5184 18.4351 5.70195C16.6313 6.88483 14.6249 7.54765 12.4451 7.81958C11.7004 7.91475 10.9557 7.94534 10.2074 7.93854Z" fill="#DBDDE0"/>
</svg>
