<svg width="38" height="34" viewBox="0 0 38 34" fill="none" xmlns="http://www.w3.org/2000/svg">
<path d="M33.7778 3.77778H29.5556V0H8.44444V3.77778H4.22222C1.9 3.77778 0 5.47778 0 7.55556V9.44444C0 14.2611 4.05333 18.19 9.26778 18.7756C10.5978 21.6089 13.4478 23.7433 16.8889 24.3667V30.2222H8.44444V34H29.5556V30.2222H21.1111V24.3667C24.5522 23.7433 27.4022 21.6089 28.7322 18.7756C33.9467 18.19 38 14.2611 38 9.44444V7.55556C38 5.47778 36.1 3.77778 33.7778 3.77778ZM4.22222 9.44444V7.55556H8.44444V14.7711C5.99556 13.9778 4.22222 11.9 4.22222 9.44444ZM33.7778 9.44444C33.7778 11.9 32.0044 13.9778 29.5556 14.7711V7.55556H33.7778V9.44444Z" fill="#DBDDE0"/>
</svg>
